<svg width="66" height="13" viewBox="0 0 66 13" fill="none" xmlns="http://www.w3.org/2000/svg">
<path d="M7.4375 9.65625H3.32812L2.54688 12H0.0546875L4.28906 0.625H6.46094L10.7188 12H8.22656L7.4375 9.65625ZM3.96094 7.75781H6.80469L5.375 3.5L3.96094 7.75781ZM19.25 7.85156C19.25 9.20573 18.9609 10.263 18.3828 11.0234C17.8047 11.7786 16.9974 12.1562 15.9609 12.1562C15.0443 12.1562 14.3125 11.8047 13.7656 11.1016L13.6641 12H11.6328V0H13.8906V4.30469C14.4115 3.69531 15.0964 3.39062 15.9453 3.39062C16.9766 3.39062 17.7839 3.77083 18.3672 4.53125C18.9557 5.28646 19.25 6.35156 19.25 7.72656V7.85156ZM16.9922 7.6875C16.9922 6.83333 16.8568 6.21094 16.5859 5.82031C16.3151 5.42448 15.9115 5.22656 15.375 5.22656C14.6562 5.22656 14.1615 5.52083 13.8906 6.10938V9.44531C14.1667 10.0391 14.6667 10.3359 15.3906 10.3359C16.1198 10.3359 16.599 9.97656 16.8281 9.25781C16.9375 8.91406 16.9922 8.39062 16.9922 7.6875ZM20.2969 7.69531C20.2969 6.85677 20.4583 6.10938 20.7812 5.45312C21.1042 4.79688 21.5677 4.28906 22.1719 3.92969C22.7812 3.57031 23.487 3.39062 24.2891 3.39062C25.4297 3.39062 26.3594 3.73958 27.0781 4.4375C27.8021 5.13542 28.2057 6.08333 28.2891 7.28125L28.3047 7.85938C28.3047 9.15625 27.9427 10.1979 27.2188 10.9844C26.4948 11.7656 25.5234 12.1562 24.3047 12.1562C23.0859 12.1562 22.112 11.7656 21.3828 10.9844C20.6589 10.2031 20.2969 9.14062 20.2969 7.79688V7.69531ZM22.5547 7.85938C22.5547 8.66146 22.7057 9.27604 23.0078 9.70312C23.3099 10.125 23.7422 10.3359 24.3047 10.3359C24.8516 10.3359 25.2786 10.1276 25.5859 9.71094C25.8932 9.28906 26.0469 8.61719 26.0469 7.69531C26.0469 6.90885 25.8932 6.29948 25.5859 5.86719C25.2786 5.4349 24.8464 5.21875 24.2891 5.21875C23.737 5.21875 23.3099 5.4349 23.0078 5.86719C22.7057 6.29427 22.5547 6.95833 22.5547 7.85938ZM34.7578 11.1406C34.2005 11.8177 33.4297 12.1562 32.4453 12.1562C31.5391 12.1562 30.8464 11.8958 30.3672 11.375C29.8932 10.8542 29.651 10.0911 29.6406 9.08594V3.54688H31.8984V9.00781C31.8984 9.88802 32.2995 10.3281 33.1016 10.3281C33.8672 10.3281 34.3932 10.0625 34.6797 9.53125V3.54688H36.9453V12H34.8203L34.7578 11.1406ZM41.3516 1.46875V3.54688H42.7969V5.20312H41.3516V9.42188C41.3516 9.73438 41.4115 9.95833 41.5312 10.0938C41.651 10.2292 41.8802 10.2969 42.2188 10.2969C42.4688 10.2969 42.6901 10.2786 42.8828 10.2422V11.9531C42.4401 12.0885 41.9844 12.1562 41.5156 12.1562C39.9323 12.1562 39.125 11.3568 39.0938 9.75781V5.20312H37.8594V3.54688H39.0938V1.46875H41.3516ZM56.7969 0.625V8.11719C56.7969 9.36198 56.4062 10.3464 55.625 11.0703C54.849 11.7943 53.7865 12.1562 52.4375 12.1562C51.1094 12.1562 50.0547 11.8047 49.2734 11.1016C48.4922 10.3984 48.0938 9.43229 48.0781 8.20312V0.625H50.4219V8.13281C50.4219 8.8776 50.599 9.42188 50.9531 9.76562C51.3125 10.1042 51.8073 10.2734 52.4375 10.2734C53.7552 10.2734 54.4245 9.58073 54.4453 8.19531V0.625H56.7969ZM63.1484 9.66406C63.1484 9.38802 63.0104 9.17188 62.7344 9.01562C62.4635 8.85417 62.026 8.71094 61.4219 8.58594C59.4115 8.16406 58.4062 7.3099 58.4062 6.02344C58.4062 5.27344 58.7161 4.64844 59.3359 4.14844C59.9609 3.64323 60.776 3.39062 61.7812 3.39062C62.8542 3.39062 63.7109 3.64323 64.3516 4.14844C64.9974 4.65365 65.3203 5.3099 65.3203 6.11719H63.0625C63.0625 5.79427 62.9583 5.52865 62.75 5.32031C62.5417 5.10677 62.2161 5 61.7734 5C61.3932 5 61.099 5.08594 60.8906 5.25781C60.6823 5.42969 60.5781 5.64844 60.5781 5.91406C60.5781 6.16406 60.6953 6.36719 60.9297 6.52344C61.1693 6.67448 61.5703 6.80729 62.1328 6.92188C62.6953 7.03125 63.1693 7.15625 63.5547 7.29688C64.7474 7.73438 65.3438 8.49219 65.3438 9.57031C65.3438 10.3411 65.013 10.9661 64.3516 11.4453C63.6901 11.9193 62.8359 12.1562 61.7891 12.1562C61.0807 12.1562 60.4505 12.0312 59.8984 11.7812C59.3516 11.526 58.9219 11.1797 58.6094 10.7422C58.2969 10.2995 58.1406 9.82292 58.1406 9.3125H60.2812C60.3021 9.71354 60.4505 10.0208 60.7266 10.2344C61.0026 10.4479 61.3724 10.5547 61.8359 10.5547C62.2682 10.5547 62.5938 10.474 62.8125 10.3125C63.0365 10.1458 63.1484 9.92969 63.1484 9.66406Z" fill="#041011"/>
</svg>
