<svg width="1140" height="590" viewBox="0 0 1140 590" fill="none" xmlns="http://www.w3.org/2000/svg">
<path fill-rule="evenodd" clip-rule="evenodd" d="M5.96058 6.04465C94.4646 13.7135 147.742 17.8079 165.793 18.3279C192.87 19.108 311.063 9.92124 344.374 9.92124C377.685 9.92124 549.363 -0.00427246 583.656 -0.00427246C617.949 -0.00427246 890.755 9.92124 924.262 9.92124C946.6 9.92124 1018.51 6.61273 1140 -0.00427246C1125.32 84.3701 1117.98 132.65 1117.98 144.837C1117.98 163.117 1138.93 225.462 1140 252.953C1141.07 280.443 1123.55 407.015 1123.55 433.937C1123.55 451.885 1127.06 501.305 1134.08 582.196C899.947 564.098 769.232 555.049 741.931 555.049C700.979 555.049 509.03 589.211 476.851 590C444.672 590.789 285.491 563.804 244.053 563.804C216.428 563.804 135.077 572.536 0.000154275 590C7.75669 511.139 11.635 462.197 11.635 443.175C11.635 414.642 -0.476685 292.82 0.000154275 268.495C0.476994 244.17 17.4833 165.55 17.4833 144.837C17.4833 131.028 13.6424 84.7642 5.96058 6.04465Z" fill="#FFEEF2"/>
</svg>
