<svg width="145" height="56" viewBox="0 0 145 56" fill="none" xmlns="http://www.w3.org/2000/svg">
<path d="M0 5C0 2.23858 2.23858 0 5 0H140C142.761 0 145 2.23858 145 5V51C145 53.7614 142.761 56 140 56H5C2.23858 56 0 53.7614 0 51V5Z" fill="#007188"/>
<path d="M25.0156 32V20.625H29C30.3802 20.625 31.4271 20.8906 32.1406 21.4219C32.8542 21.9479 33.2109 22.7214 33.2109 23.7422C33.2109 24.2995 33.0677 24.7917 32.7812 25.2188C32.4948 25.6406 32.0964 25.9505 31.5859 26.1484C32.1693 26.2943 32.6276 26.5885 32.9609 27.0312C33.2995 27.474 33.4688 28.0156 33.4688 28.6562C33.4688 29.75 33.1198 30.5781 32.4219 31.1406C31.724 31.7031 30.7292 31.9896 29.4375 32H25.0156ZM27.3594 27.0469V30.1172H29.3672C29.9193 30.1172 30.349 29.987 30.6562 29.7266C30.9688 29.4609 31.125 29.0964 31.125 28.6328C31.125 27.5911 30.5859 27.0625 29.5078 27.0469H27.3594ZM27.3594 25.3906H29.0938C30.276 25.3698 30.8672 24.8984 30.8672 23.9766C30.8672 23.4609 30.7161 23.0911 30.4141 22.8672C30.1172 22.638 29.6458 22.5234 29 22.5234H27.3594V25.3906ZM34.7344 27.6953C34.7344 26.8568 34.8958 26.1094 35.2188 25.4531C35.5417 24.7969 36.0052 24.2891 36.6094 23.9297C37.2188 23.5703 37.9245 23.3906 38.7266 23.3906C39.8672 23.3906 40.7969 23.7396 41.5156 24.4375C42.2396 25.1354 42.6432 26.0833 42.7266 27.2812L42.7422 27.8594C42.7422 29.1562 42.3802 30.1979 41.6562 30.9844C40.9323 31.7656 39.9609 32.1562 38.7422 32.1562C37.5234 32.1562 36.5495 31.7656 35.8203 30.9844C35.0964 30.2031 34.7344 29.1406 34.7344 27.7969V27.6953ZM36.9922 27.8594C36.9922 28.6615 37.1432 29.276 37.4453 29.7031C37.7474 30.125 38.1797 30.3359 38.7422 30.3359C39.2891 30.3359 39.7161 30.1276 40.0234 29.7109C40.3307 29.2891 40.4844 28.6172 40.4844 27.6953C40.4844 26.9089 40.3307 26.2995 40.0234 25.8672C39.7161 25.4349 39.2839 25.2188 38.7266 25.2188C38.1745 25.2188 37.7474 25.4349 37.4453 25.8672C37.1432 26.2943 36.9922 26.9583 36.9922 27.8594ZM43.7812 27.6953C43.7812 26.8568 43.9427 26.1094 44.2656 25.4531C44.5885 24.7969 45.0521 24.2891 45.6562 23.9297C46.2656 23.5703 46.9714 23.3906 47.7734 23.3906C48.9141 23.3906 49.8438 23.7396 50.5625 24.4375C51.2865 25.1354 51.6901 26.0833 51.7734 27.2812L51.7891 27.8594C51.7891 29.1562 51.4271 30.1979 50.7031 30.9844C49.9792 31.7656 49.0078 32.1562 47.7891 32.1562C46.5703 32.1562 45.5964 31.7656 44.8672 30.9844C44.1432 30.2031 43.7812 29.1406 43.7812 27.7969V27.6953ZM46.0391 27.8594C46.0391 28.6615 46.1901 29.276 46.4922 29.7031C46.7943 30.125 47.2266 30.3359 47.7891 30.3359C48.3359 30.3359 48.763 30.1276 49.0703 29.7109C49.3776 29.2891 49.5312 28.6172 49.5312 27.6953C49.5312 26.9089 49.3776 26.2995 49.0703 25.8672C48.763 25.4349 48.3307 25.2188 47.7734 25.2188C47.2214 25.2188 46.7943 25.4349 46.4922 25.8672C46.1901 26.2943 46.0391 26.9583 46.0391 27.8594ZM56.25 28.6094L55.4375 29.4219V32H53.1797V20H55.4375V26.6484L55.875 26.0859L58.0391 23.5469H60.75L57.6953 27.0703L61.0156 32H58.4219L56.25 28.6094ZM70.6094 32C70.5052 31.7969 70.4297 31.5443 70.3828 31.2422C69.8359 31.8516 69.125 32.1562 68.25 32.1562C67.4219 32.1562 66.7344 31.9167 66.1875 31.4375C65.6458 30.9583 65.375 30.3542 65.375 29.625C65.375 28.7292 65.7057 28.0417 66.3672 27.5625C67.0339 27.0833 67.9948 26.8411 69.25 26.8359H70.2891V26.3516C70.2891 25.9609 70.1875 25.6484 69.9844 25.4141C69.7865 25.1797 69.4714 25.0625 69.0391 25.0625C68.6589 25.0625 68.3594 25.1536 68.1406 25.3359C67.9271 25.5182 67.8203 25.7682 67.8203 26.0859H65.5625C65.5625 25.5964 65.7135 25.1432 66.0156 24.7266C66.3177 24.3099 66.7448 23.9844 67.2969 23.75C67.849 23.5104 68.4688 23.3906 69.1562 23.3906C70.1979 23.3906 71.0234 23.6536 71.6328 24.1797C72.2474 24.7005 72.5547 25.4349 72.5547 26.3828V30.0469C72.5599 30.849 72.6719 31.4557 72.8906 31.8672V32H70.6094ZM68.7422 30.4297C69.0755 30.4297 69.3828 30.3568 69.6641 30.2109C69.9453 30.0599 70.1536 29.8594 70.2891 29.6094V28.1562H69.4453C68.3151 28.1562 67.7135 28.5469 67.6406 29.3281L67.6328 29.4609C67.6328 29.7422 67.7318 29.974 67.9297 30.1562C68.1276 30.3385 68.3984 30.4297 68.7422 30.4297ZM78.4219 32V20.625H81.9219C82.9219 20.625 83.8151 20.8516 84.6016 21.3047C85.3932 21.7526 86.0104 22.3932 86.4531 23.2266C86.8958 24.0547 87.1172 24.9974 87.1172 26.0547V26.5781C87.1172 27.6354 86.8984 28.5755 86.4609 29.3984C86.0286 30.2214 85.4167 30.8594 84.625 31.3125C83.8333 31.7656 82.9401 31.9948 81.9453 32H78.4219ZM80.7656 22.5234V30.1172H81.8984C82.8151 30.1172 83.5156 29.8177 84 29.2188C84.4844 28.6198 84.7318 27.763 84.7422 26.6484V26.0469C84.7422 24.8906 84.5026 24.0156 84.0234 23.4219C83.5443 22.8229 82.8438 22.5234 81.9219 22.5234H80.7656ZM92.5703 32.1562C91.3307 32.1562 90.3203 31.776 89.5391 31.0156C88.763 30.2552 88.375 29.2422 88.375 27.9766V27.7578C88.375 26.9089 88.5391 26.151 88.8672 25.4844C89.1953 24.8125 89.6589 24.2969 90.2578 23.9375C90.862 23.5729 91.5495 23.3906 92.3203 23.3906C93.4766 23.3906 94.3854 23.7552 95.0469 24.4844C95.7135 25.2135 96.0469 26.2474 96.0469 27.5859V28.5078H90.6641C90.737 29.0599 90.9557 29.5026 91.3203 29.8359C91.6901 30.1693 92.1562 30.3359 92.7188 30.3359C93.5885 30.3359 94.2682 30.0208 94.7578 29.3906L95.8672 30.6328C95.5286 31.112 95.0703 31.487 94.4922 31.7578C93.9141 32.0234 93.2734 32.1562 92.5703 32.1562ZM92.3125 25.2188C91.8646 25.2188 91.5 25.3698 91.2188 25.6719C90.9427 25.974 90.7656 26.4062 90.6875 26.9688H93.8281V26.7891C93.8177 26.2891 93.6823 25.9036 93.4219 25.6328C93.1615 25.3568 92.7917 25.2188 92.3125 25.2188ZM99.4531 23.5469L99.5234 24.4922C100.122 23.7578 100.932 23.3906 101.953 23.3906C103.042 23.3906 103.789 23.8203 104.195 24.6797C104.789 23.8203 105.635 23.3906 106.734 23.3906C107.651 23.3906 108.333 23.6589 108.781 24.1953C109.229 24.7266 109.453 25.5286 109.453 26.6016V32H107.188V26.6094C107.188 26.1302 107.094 25.7812 106.906 25.5625C106.719 25.3385 106.388 25.2266 105.914 25.2266C105.237 25.2266 104.768 25.5495 104.508 26.1953L104.516 32H102.258V26.6172C102.258 26.1276 102.161 25.7734 101.969 25.5547C101.776 25.3359 101.448 25.2266 100.984 25.2266C100.344 25.2266 99.8802 25.4922 99.5938 26.0234V32H97.3359V23.5469H99.4531ZM110.844 27.6953C110.844 26.8568 111.005 26.1094 111.328 25.4531C111.651 24.7969 112.115 24.2891 112.719 23.9297C113.328 23.5703 114.034 23.3906 114.836 23.3906C115.977 23.3906 116.906 23.7396 117.625 24.4375C118.349 25.1354 118.753 26.0833 118.836 27.2812L118.852 27.8594C118.852 29.1562 118.49 30.1979 117.766 30.9844C117.042 31.7656 116.07 32.1562 114.852 32.1562C113.633 32.1562 112.659 31.7656 111.93 30.9844C111.206 30.2031 110.844 29.1406 110.844 27.7969V27.6953ZM113.102 27.8594C113.102 28.6615 113.253 29.276 113.555 29.7031C113.857 30.125 114.289 30.3359 114.852 30.3359C115.398 30.3359 115.826 30.1276 116.133 29.7109C116.44 29.2891 116.594 28.6172 116.594 27.6953C116.594 26.9089 116.44 26.2995 116.133 25.8672C115.826 25.4349 115.393 25.2188 114.836 25.2188C114.284 25.2188 113.857 25.4349 113.555 25.8672C113.253 26.2943 113.102 26.9583 113.102 27.8594Z" fill="white"/>
</svg>
