<svg width="45" height="13" viewBox="0 0 45 13" fill="none" xmlns="http://www.w3.org/2000/svg">
<path d="M9.94531 8.21094C9.85677 9.4349 9.40365 10.3984 8.58594 11.1016C7.77344 11.8047 6.70052 12.1562 5.36719 12.1562C3.90885 12.1562 2.76042 11.6667 1.92188 10.6875C1.08854 9.70312 0.671875 8.35417 0.671875 6.64062V5.94531C0.671875 4.85156 0.864583 3.88802 1.25 3.05469C1.63542 2.22135 2.1849 1.58333 2.89844 1.14062C3.61719 0.692708 4.45052 0.46875 5.39844 0.46875C6.71094 0.46875 7.76823 0.820312 8.57031 1.52344C9.3724 2.22656 9.83594 3.21354 9.96094 4.48438H7.61719C7.5599 3.75 7.35417 3.21875 7 2.89062C6.65104 2.55729 6.11719 2.39062 5.39844 2.39062C4.61719 2.39062 4.03125 2.67188 3.64062 3.23438C3.25521 3.79167 3.05729 4.65885 3.04688 5.83594V6.69531C3.04688 7.92448 3.23177 8.82292 3.60156 9.39062C3.97656 9.95833 4.5651 10.2422 5.36719 10.2422C6.09115 10.2422 6.63021 10.0781 6.98438 9.75C7.34375 9.41667 7.54948 8.90365 7.60156 8.21094H9.94531ZM10.9844 7.69531C10.9844 6.85677 11.1458 6.10938 11.4688 5.45312C11.7917 4.79688 12.2552 4.28906 12.8594 3.92969C13.4688 3.57031 14.1745 3.39062 14.9766 3.39062C16.1172 3.39062 17.0469 3.73958 17.7656 4.4375C18.4896 5.13542 18.8932 6.08333 18.9766 7.28125L18.9922 7.85938C18.9922 9.15625 18.6302 10.1979 17.9062 10.9844C17.1823 11.7656 16.2109 12.1562 14.9922 12.1562C13.7734 12.1562 12.7995 11.7656 12.0703 10.9844C11.3464 10.2031 10.9844 9.14062 10.9844 7.79688V7.69531ZM13.2422 7.85938C13.2422 8.66146 13.3932 9.27604 13.6953 9.70312C13.9974 10.125 14.4297 10.3359 14.9922 10.3359C15.5391 10.3359 15.9661 10.1276 16.2734 9.71094C16.5807 9.28906 16.7344 8.61719 16.7344 7.69531C16.7344 6.90885 16.5807 6.29948 16.2734 5.86719C15.9661 5.4349 15.5339 5.21875 14.9766 5.21875C14.4245 5.21875 13.9974 5.4349 13.6953 5.86719C13.3932 6.29427 13.2422 6.95833 13.2422 7.85938ZM25.2812 12C25.1771 11.7969 25.1016 11.5443 25.0547 11.2422C24.5078 11.8516 23.7969 12.1562 22.9219 12.1562C22.0938 12.1562 21.4062 11.9167 20.8594 11.4375C20.3177 10.9583 20.0469 10.3542 20.0469 9.625C20.0469 8.72917 20.3776 8.04167 21.0391 7.5625C21.7057 7.08333 22.6667 6.84115 23.9219 6.83594H24.9609V6.35156C24.9609 5.96094 24.8594 5.64844 24.6562 5.41406C24.4583 5.17969 24.1432 5.0625 23.7109 5.0625C23.3307 5.0625 23.0312 5.15365 22.8125 5.33594C22.599 5.51823 22.4922 5.76823 22.4922 6.08594H20.2344C20.2344 5.59635 20.3854 5.14323 20.6875 4.72656C20.9896 4.3099 21.4167 3.98438 21.9688 3.75C22.5208 3.51042 23.1406 3.39062 23.8281 3.39062C24.8698 3.39062 25.6953 3.65365 26.3047 4.17969C26.9193 4.70052 27.2266 5.4349 27.2266 6.38281V10.0469C27.2318 10.849 27.3438 11.4557 27.5625 11.8672V12H25.2812ZM23.4141 10.4297C23.7474 10.4297 24.0547 10.3568 24.3359 10.2109C24.6172 10.0599 24.8255 9.85938 24.9609 9.60938V8.15625H24.1172C22.987 8.15625 22.3854 8.54688 22.3125 9.32812L22.3047 9.46094C22.3047 9.74219 22.4036 9.97396 22.6016 10.1562C22.7995 10.3385 23.0703 10.4297 23.4141 10.4297ZM32.4766 10.3359C32.8932 10.3359 33.2318 10.2214 33.4922 9.99219C33.7526 9.76302 33.888 9.45833 33.8984 9.07812H36.0156C36.0104 9.65104 35.8542 10.1771 35.5469 10.6562C35.2396 11.1302 34.8177 11.5 34.2812 11.7656C33.75 12.026 33.1615 12.1562 32.5156 12.1562C31.3073 12.1562 30.3542 11.7734 29.6562 11.0078C28.9583 10.237 28.6094 9.17448 28.6094 7.82031V7.67188C28.6094 6.36979 28.9557 5.33073 29.6484 4.55469C30.3411 3.77865 31.2917 3.39062 32.5 3.39062C33.5573 3.39062 34.4036 3.69271 35.0391 4.29688C35.6797 4.89583 36.0052 5.69531 36.0156 6.69531H33.8984C33.888 6.25781 33.7526 5.90365 33.4922 5.63281C33.2318 5.35677 32.888 5.21875 32.4609 5.21875C31.9349 5.21875 31.5365 5.41146 31.2656 5.79688C31 6.17708 30.8672 6.79688 30.8672 7.65625V7.89062C30.8672 8.76042 31 9.38542 31.2656 9.76562C31.5312 10.1458 31.9349 10.3359 32.4766 10.3359ZM39.5078 4.46875C40.1068 3.75 40.8594 3.39062 41.7656 3.39062C43.599 3.39062 44.5286 4.45573 44.5547 6.58594V12H42.2969V6.64844C42.2969 6.16406 42.1927 5.80729 41.9844 5.57812C41.776 5.34375 41.4297 5.22656 40.9453 5.22656C40.2839 5.22656 39.8047 5.48177 39.5078 5.99219V12H37.25V0H39.5078V4.46875Z" fill="#041011"/>
</svg>
