<svg width="42" height="13" viewBox="0 0 42 13" fill="none" xmlns="http://www.w3.org/2000/svg">
<path d="M9.27344 12H6.92969V7.125H2.35938V12H0.015625V0.625H2.35938V5.23438H6.92969V0.625H9.27344V12ZM10.8281 7.69531C10.8281 6.85677 10.9896 6.10938 11.3125 5.45312C11.6354 4.79688 12.099 4.28906 12.7031 3.92969C13.3125 3.57031 14.0182 3.39062 14.8203 3.39062C15.9609 3.39062 16.8906 3.73958 17.6094 4.4375C18.3333 5.13542 18.737 6.08333 18.8203 7.28125L18.8359 7.85938C18.8359 9.15625 18.474 10.1979 17.75 10.9844C17.026 11.7656 16.0547 12.1562 14.8359 12.1562C13.6172 12.1562 12.6432 11.7656 11.9141 10.9844C11.1901 10.2031 10.8281 9.14062 10.8281 7.79688V7.69531ZM13.0859 7.85938C13.0859 8.66146 13.237 9.27604 13.5391 9.70312C13.8411 10.125 14.2734 10.3359 14.8359 10.3359C15.3828 10.3359 15.8099 10.1276 16.1172 9.71094C16.4245 9.28906 16.5781 8.61719 16.5781 7.69531C16.5781 6.90885 16.4245 6.29948 16.1172 5.86719C15.8099 5.4349 15.3776 5.21875 14.8203 5.21875C14.2682 5.21875 13.8411 5.4349 13.5391 5.86719C13.237 6.29427 13.0859 6.95833 13.0859 7.85938ZM22.3438 3.54688L22.4141 4.49219C23.013 3.75781 23.8229 3.39062 24.8438 3.39062C25.9323 3.39062 26.6797 3.82031 27.0859 4.67969C27.6797 3.82031 28.526 3.39062 29.625 3.39062C30.5417 3.39062 31.224 3.65885 31.6719 4.19531C32.1198 4.72656 32.3438 5.52865 32.3438 6.60156V12H30.0781V6.60938C30.0781 6.13021 29.9844 5.78125 29.7969 5.5625C29.6094 5.33854 29.2786 5.22656 28.8047 5.22656C28.1276 5.22656 27.6589 5.54948 27.3984 6.19531L27.4062 12H25.1484V6.61719C25.1484 6.1276 25.0521 5.77344 24.8594 5.55469C24.6667 5.33594 24.3385 5.22656 23.875 5.22656C23.2344 5.22656 22.7708 5.49219 22.4844 6.02344V12H20.2266V3.54688H22.3438ZM37.9766 12.1562C36.737 12.1562 35.7266 11.776 34.9453 11.0156C34.1693 10.2552 33.7812 9.24219 33.7812 7.97656V7.75781C33.7812 6.90885 33.9453 6.15104 34.2734 5.48438C34.6016 4.8125 35.0651 4.29688 35.6641 3.9375C36.2682 3.57292 36.9557 3.39062 37.7266 3.39062C38.8828 3.39062 39.7917 3.75521 40.4531 4.48438C41.1198 5.21354 41.4531 6.2474 41.4531 7.58594V8.50781H36.0703C36.1432 9.0599 36.362 9.5026 36.7266 9.83594C37.0964 10.1693 37.5625 10.3359 38.125 10.3359C38.9948 10.3359 39.6745 10.0208 40.1641 9.39062L41.2734 10.6328C40.9349 11.112 40.4766 11.487 39.8984 11.7578C39.3203 12.0234 38.6797 12.1562 37.9766 12.1562ZM37.7188 5.21875C37.2708 5.21875 36.9062 5.36979 36.625 5.67188C36.349 5.97396 36.1719 6.40625 36.0938 6.96875H39.2344V6.78906C39.224 6.28906 39.0885 5.90365 38.8281 5.63281C38.5677 5.35677 38.1979 5.21875 37.7188 5.21875Z" fill="#041011"/>
</svg>
