<svg width="94" height="13" viewBox="0 0 94 13" fill="none" xmlns="http://www.w3.org/2000/svg">
<path d="M9.27344 12H6.92969V7.125H2.35938V12H0.015625V0.625H2.35938V5.23438H6.92969V0.625H9.27344V12ZM10.8281 7.69531C10.8281 6.85677 10.9896 6.10938 11.3125 5.45312C11.6354 4.79688 12.099 4.28906 12.7031 3.92969C13.3125 3.57031 14.0182 3.39062 14.8203 3.39062C15.9609 3.39062 16.8906 3.73958 17.6094 4.4375C18.3333 5.13542 18.737 6.08333 18.8203 7.28125L18.8359 7.85938C18.8359 9.15625 18.474 10.1979 17.75 10.9844C17.026 11.7656 16.0547 12.1562 14.8359 12.1562C13.6172 12.1562 12.6432 11.7656 11.9141 10.9844C11.1901 10.2031 10.8281 9.14062 10.8281 7.79688V7.69531ZM13.0859 7.85938C13.0859 8.66146 13.237 9.27604 13.5391 9.70312C13.8411 10.125 14.2734 10.3359 14.8359 10.3359C15.3828 10.3359 15.8099 10.1276 16.1172 9.71094C16.4245 9.28906 16.5781 8.61719 16.5781 7.69531C16.5781 6.90885 16.4245 6.29948 16.1172 5.86719C15.8099 5.4349 15.3776 5.21875 14.8203 5.21875C14.2682 5.21875 13.8411 5.4349 13.5391 5.86719C13.237 6.29427 13.0859 6.95833 13.0859 7.85938ZM27.5781 8.92969L28.6875 3.54688H30.8672L28.7109 12H26.8203L25.2188 6.67969L23.6172 12H21.7344L19.5781 3.54688H21.7578L22.8594 8.92188L24.4062 3.54688H26.0391L27.5781 8.92969ZM38.3594 12H36.0938V3.54688H38.3594V12ZM35.9609 1.35938C35.9609 1.02083 36.0729 0.742188 36.2969 0.523438C36.526 0.304688 36.8359 0.195312 37.2266 0.195312C37.612 0.195312 37.9193 0.304688 38.1484 0.523438C38.3776 0.742188 38.4922 1.02083 38.4922 1.35938C38.4922 1.70312 38.375 1.98438 38.1406 2.20312C37.9115 2.42188 37.6068 2.53125 37.2266 2.53125C36.8464 2.53125 36.5391 2.42188 36.3047 2.20312C36.0755 1.98438 35.9609 1.70312 35.9609 1.35938ZM42.9297 1.46875V3.54688H44.375V5.20312H42.9297V9.42188C42.9297 9.73438 42.9896 9.95833 43.1094 10.0938C43.2292 10.2292 43.4583 10.2969 43.7969 10.2969C44.0469 10.2969 44.2682 10.2786 44.4609 10.2422V11.9531C44.0182 12.0885 43.5625 12.1562 43.0938 12.1562C41.5104 12.1562 40.7031 11.3568 40.6719 9.75781V5.20312H39.4375V3.54688H40.6719V1.46875H42.9297ZM58.625 8.71875L60.1562 0.625H62.4922L59.9688 12H57.6094L55.7578 4.39062L53.9062 12H51.5469L49.0234 0.625H51.3594L52.8984 8.70312L54.7734 0.625H56.7578L58.625 8.71875ZM63.0156 7.69531C63.0156 6.85677 63.1771 6.10938 63.5 5.45312C63.8229 4.79688 64.2865 4.28906 64.8906 3.92969C65.5 3.57031 66.2057 3.39062 67.0078 3.39062C68.1484 3.39062 69.0781 3.73958 69.7969 4.4375C70.5208 5.13542 70.9245 6.08333 71.0078 7.28125L71.0234 7.85938C71.0234 9.15625 70.6615 10.1979 69.9375 10.9844C69.2135 11.7656 68.2422 12.1562 67.0234 12.1562C65.8047 12.1562 64.8307 11.7656 64.1016 10.9844C63.3776 10.2031 63.0156 9.14062 63.0156 7.79688V7.69531ZM65.2734 7.85938C65.2734 8.66146 65.4245 9.27604 65.7266 9.70312C66.0286 10.125 66.4609 10.3359 67.0234 10.3359C67.5703 10.3359 67.9974 10.1276 68.3047 9.71094C68.612 9.28906 68.7656 8.61719 68.7656 7.69531C68.7656 6.90885 68.612 6.29948 68.3047 5.86719C67.9974 5.4349 67.5651 5.21875 67.0078 5.21875C66.4557 5.21875 66.0286 5.4349 65.7266 5.86719C65.4245 6.29427 65.2734 6.95833 65.2734 7.85938ZM77.1641 5.66406C76.8568 5.6224 76.5859 5.60156 76.3516 5.60156C75.4974 5.60156 74.9375 5.89062 74.6719 6.46875V12H72.4141V3.54688H74.5469L74.6094 4.55469C75.0625 3.77865 75.6901 3.39062 76.4922 3.39062C76.7422 3.39062 76.9766 3.42448 77.1953 3.49219L77.1641 5.66406ZM81.3281 8.60938L80.5156 9.42188V12H78.2578V0H80.5156V6.64844L80.9531 6.08594L83.1172 3.54688H85.8281L82.7734 7.07031L86.0938 12H83.5L81.3281 8.60938ZM91.3828 9.66406C91.3828 9.38802 91.2448 9.17188 90.9688 9.01562C90.6979 8.85417 90.2604 8.71094 89.6562 8.58594C87.6458 8.16406 86.6406 7.3099 86.6406 6.02344C86.6406 5.27344 86.9505 4.64844 87.5703 4.14844C88.1953 3.64323 89.0104 3.39062 90.0156 3.39062C91.0885 3.39062 91.9453 3.64323 92.5859 4.14844C93.2318 4.65365 93.5547 5.3099 93.5547 6.11719H91.2969C91.2969 5.79427 91.1927 5.52865 90.9844 5.32031C90.776 5.10677 90.4505 5 90.0078 5C89.6276 5 89.3333 5.08594 89.125 5.25781C88.9167 5.42969 88.8125 5.64844 88.8125 5.91406C88.8125 6.16406 88.9297 6.36719 89.1641 6.52344C89.4036 6.67448 89.8047 6.80729 90.3672 6.92188C90.9297 7.03125 91.4036 7.15625 91.7891 7.29688C92.9818 7.73438 93.5781 8.49219 93.5781 9.57031C93.5781 10.3411 93.2474 10.9661 92.5859 11.4453C91.9245 11.9193 91.0703 12.1562 90.0234 12.1562C89.3151 12.1562 88.6849 12.0312 88.1328 11.7812C87.5859 11.526 87.1562 11.1797 86.8438 10.7422C86.5312 10.2995 86.375 9.82292 86.375 9.3125H88.5156C88.5365 9.71354 88.6849 10.0208 88.9609 10.2344C89.237 10.4479 89.6068 10.5547 90.0703 10.5547C90.5026 10.5547 90.8281 10.474 91.0469 10.3125C91.2708 10.1458 91.3828 9.92969 91.3828 9.66406Z" fill="#041011"/>
</svg>
