<svg width="450" height="106" viewBox="0 0 450 106" fill="none" xmlns="http://www.w3.org/2000/svg">
<path d="M230 105C351.503 105 450 97.165 450 87.5C450 77.835 351.503 70 230 70C108.497 70 10 77.835 10 87.5C10 97.165 108.497 105 230 105Z" fill="#FFDDD7"/>
<path d="M284.222 83C280.964 83 277.728 83.1091 275.234 83.3305L201.248 89.8954L175.725 87.6307C170.737 87.1881 162.738 87.1881 157.75 87.6307C152.75 88.0733 152.75 88.7875 157.75 89.2301L192.26 92.2923C197.248 92.7359 205.247 92.7359 210.235 92.2923L293.259 84.9298C298.247 84.4872 298.247 83.7731 293.259 83.3305C290.759 83.1091 287.479 83 284.222 83Z" fill="#002E8C"/>
<path d="M46.7466 92H45.3403V81.3359H46.7466V92ZM50.394 84.0752L50.438 85.0713C51.0435 84.3096 51.8345 83.9287 52.811 83.9287C54.4858 83.9287 55.3306 84.8735 55.3452 86.7632V92H53.9902V86.7559C53.9854 86.1846 53.8535 85.7622 53.5947 85.4888C53.3408 85.2153 52.9429 85.0786 52.4009 85.0786C51.9614 85.0786 51.5757 85.1958 51.2437 85.4302C50.9116 85.6646 50.6528 85.9722 50.4673 86.353V92H49.1123V84.0752H50.394ZM60.5674 91.0405C61.0508 91.0405 61.4731 90.894 61.8345 90.6011C62.1958 90.3081 62.396 89.9419 62.4351 89.5024H63.7168C63.6924 89.9565 63.5361 90.3887 63.248 90.7988C62.96 91.209 62.5742 91.5361 62.0908 91.7803C61.6123 92.0244 61.1045 92.1465 60.5674 92.1465C59.4883 92.1465 58.6289 91.7876 57.9893 91.0698C57.3545 90.3472 57.0371 89.3608 57.0371 88.1108V87.8838C57.0371 87.1123 57.1787 86.4263 57.4619 85.8257C57.7451 85.2251 58.1504 84.7588 58.6777 84.4268C59.21 84.0947 59.8374 83.9287 60.5601 83.9287C61.4487 83.9287 62.186 84.1948 62.772 84.7271C63.3628 85.2593 63.6777 85.9502 63.7168 86.7998H62.4351C62.396 86.2871 62.2007 85.8672 61.8491 85.54C61.5024 85.208 61.0728 85.042 60.5601 85.042C59.8716 85.042 59.3369 85.291 58.9561 85.7891C58.5801 86.2822 58.3921 86.9976 58.3921 87.9351V88.1914C58.3921 89.1045 58.5801 89.8076 58.9561 90.3008C59.332 90.7939 59.8691 91.0405 60.5674 91.0405ZM66.7124 92H65.3574V80.75H66.7124V92ZM73.7803 91.2163C73.2529 91.8364 72.479 92.1465 71.4585 92.1465C70.6138 92.1465 69.9692 91.9023 69.5249 91.4141C69.0854 90.9209 68.8633 90.1934 68.8584 89.2314V84.0752H70.2134V89.1948C70.2134 90.396 70.7017 90.9966 71.6782 90.9966C72.7134 90.9966 73.4019 90.6108 73.7437 89.8394V84.0752H75.0986V92H73.8096L73.7803 91.2163ZM81.7783 89.8979C81.7783 89.5317 81.6392 89.2485 81.3608 89.0483C81.0874 88.8433 80.6064 88.6675 79.918 88.521C79.2344 88.3745 78.6899 88.1987 78.2847 87.9937C77.8843 87.7886 77.5864 87.5444 77.3911 87.2612C77.2007 86.978 77.1055 86.6411 77.1055 86.2505C77.1055 85.6011 77.3789 85.0518 77.9258 84.6025C78.4775 84.1533 79.1807 83.9287 80.0352 83.9287C80.9336 83.9287 81.6611 84.1606 82.2178 84.6245C82.7793 85.0884 83.0601 85.6816 83.0601 86.4043H81.6978C81.6978 86.0332 81.5391 85.7134 81.2217 85.4448C80.9092 85.1763 80.5137 85.042 80.0352 85.042C79.542 85.042 79.1562 85.1494 78.8779 85.3643C78.5996 85.5791 78.4604 85.8599 78.4604 86.2065C78.4604 86.5337 78.5898 86.7803 78.8486 86.9463C79.1074 87.1123 79.5737 87.271 80.2476 87.4224C80.9263 87.5737 81.4756 87.7544 81.8955 87.9644C82.3154 88.1743 82.6255 88.4282 82.8257 88.7261C83.0308 89.019 83.1333 89.3779 83.1333 89.8027C83.1333 90.5107 82.8501 91.0796 82.2837 91.5093C81.7173 91.9341 80.9824 92.1465 80.0791 92.1465C79.4443 92.1465 78.8828 92.0342 78.3945 91.8096C77.9062 91.585 77.5229 91.2725 77.2446 90.8721C76.9712 90.4668 76.8345 90.0298 76.8345 89.561H78.1895C78.2139 90.0151 78.3945 90.3765 78.7314 90.645C79.0732 90.9087 79.5225 91.0405 80.0791 91.0405C80.5918 91.0405 81.002 90.938 81.3096 90.7329C81.6221 90.5229 81.7783 90.2446 81.7783 89.8979ZM86.3706 92H85.0156V84.0752H86.3706V92ZM84.9058 81.9731C84.9058 81.7534 84.9717 81.5679 85.1035 81.4165C85.2402 81.2651 85.4404 81.1895 85.7041 81.1895C85.9678 81.1895 86.168 81.2651 86.3047 81.4165C86.4414 81.5679 86.5098 81.7534 86.5098 81.9731C86.5098 82.1929 86.4414 82.376 86.3047 82.5225C86.168 82.6689 85.9678 82.7422 85.7041 82.7422C85.4404 82.7422 85.2402 82.6689 85.1035 82.5225C84.9717 82.376 84.9058 82.1929 84.9058 81.9731ZM91.1606 90.1616L93.1235 84.0752H94.5078L91.666 92H90.6333L87.7622 84.0752H89.1465L91.1606 90.1616ZM98.9976 92.1465C97.9233 92.1465 97.0493 91.7949 96.3755 91.0918C95.7017 90.3838 95.3647 89.439 95.3647 88.2573V88.0083C95.3647 87.2222 95.5137 86.5215 95.8115 85.9062C96.1143 85.2861 96.5342 84.8027 97.0713 84.4561C97.6133 84.1045 98.1992 83.9287 98.8291 83.9287C99.8594 83.9287 100.66 84.2681 101.231 84.9468C101.803 85.6255 102.088 86.5972 102.088 87.8618V88.4258H96.7197C96.7393 89.207 96.9663 89.8394 97.4009 90.3228C97.8403 90.8013 98.397 91.0405 99.0708 91.0405C99.5493 91.0405 99.9546 90.9429 100.287 90.7476C100.619 90.5522 100.909 90.2935 101.158 89.9712L101.986 90.6157C101.322 91.6362 100.326 92.1465 98.9976 92.1465ZM98.8291 85.042C98.2822 85.042 97.8232 85.2422 97.4521 85.6426C97.0811 86.0381 96.8516 86.5947 96.7637 87.3125H100.733V87.21C100.694 86.5215 100.509 85.9893 100.177 85.6133C99.8447 85.2324 99.3955 85.042 98.8291 85.042Z" fill="#041011"/>
<path d="M230 70C351.503 70 450 62.165 450 52.5C450 42.835 351.503 35 230 35C108.497 35 10 42.835 10 52.5C10 62.165 108.497 70 230 70Z" fill="#FFDDD7"/>
<path d="M283.222 48.125C279.964 48.125 276.728 48.2341 274.234 48.4555L200.248 55.0204L174.725 52.7557C169.737 52.3131 161.738 52.3131 156.75 52.7557C151.75 53.1983 151.75 53.9125 156.75 54.3551L191.26 57.4173C196.248 57.8609 204.247 57.8609 209.235 57.4173L292.259 50.0548C297.247 49.6122 297.247 48.8981 292.259 48.4555C289.759 48.2341 286.479 48.125 283.222 48.125Z" fill="#002E8C"/>
<path d="M51.2656 52.0708H46.644V55.8501H52.0127V57H45.2378V46.3359H51.9395V47.4932H46.644V50.9209H51.2656V52.0708ZM54.8252 49.0752L54.8618 49.9541C55.4429 49.2705 56.2266 48.9287 57.2129 48.9287C58.3213 48.9287 59.0757 49.3535 59.4761 50.2031C59.7397 49.8223 60.0815 49.5146 60.5015 49.2803C60.9263 49.0459 61.4268 48.9287 62.0029 48.9287C63.7412 48.9287 64.625 49.8491 64.6543 51.6899V57H63.2993V51.7705C63.2993 51.2041 63.1699 50.7817 62.9111 50.5034C62.6523 50.2202 62.2178 50.0786 61.6074 50.0786C61.1045 50.0786 60.687 50.23 60.355 50.5327C60.0229 50.8306 59.8301 51.2334 59.7764 51.7412V57H58.4141V51.8071C58.4141 50.6548 57.8501 50.0786 56.7222 50.0786C55.8335 50.0786 55.2256 50.457 54.8984 51.2139V57H53.5435V49.0752H54.8252ZM73.3994 53.1255C73.3994 54.3315 73.1235 55.3032 72.5718 56.0405C72.02 56.7778 71.2729 57.1465 70.3306 57.1465C69.3687 57.1465 68.6118 56.8413 68.0601 56.231V60.0469H66.7051V49.0752H67.9429L68.0088 49.9541C68.5605 49.2705 69.3271 48.9287 70.3086 48.9287C71.2607 48.9287 72.0127 49.2876 72.5645 50.0054C73.1211 50.7231 73.3994 51.7217 73.3994 53.001V53.1255ZM72.0444 52.9717C72.0444 52.0781 71.854 51.3726 71.4731 50.855C71.0923 50.3374 70.5698 50.0786 69.9058 50.0786C69.0854 50.0786 68.4702 50.4424 68.0601 51.1699V54.9565C68.4653 55.6792 69.0854 56.0405 69.9204 56.0405C70.5698 56.0405 71.085 55.7842 71.4658 55.2715C71.8516 54.7539 72.0444 53.9873 72.0444 52.9717ZM74.769 52.9644C74.769 52.188 74.9204 51.4897 75.2231 50.8696C75.5308 50.2495 75.9556 49.771 76.4976 49.4341C77.0444 49.0972 77.667 48.9287 78.3652 48.9287C79.4443 48.9287 80.3159 49.3022 80.98 50.0493C81.6489 50.7964 81.9834 51.79 81.9834 53.0303V53.1255C81.9834 53.897 81.8345 54.5903 81.5366 55.2056C81.2437 55.8159 80.8213 56.292 80.2695 56.6338C79.7227 56.9756 79.0928 57.1465 78.3799 57.1465C77.3057 57.1465 76.4341 56.7729 75.7651 56.0259C75.1011 55.2788 74.769 54.29 74.769 53.0596V52.9644ZM76.1313 53.1255C76.1313 54.0044 76.334 54.71 76.7393 55.2422C77.1494 55.7744 77.6963 56.0405 78.3799 56.0405C79.0684 56.0405 79.6152 55.772 80.0205 55.2349C80.4258 54.6929 80.6284 53.936 80.6284 52.9644C80.6284 52.0952 80.4209 51.3921 80.0059 50.855C79.5957 50.313 79.0488 50.042 78.3652 50.042C77.6963 50.042 77.1567 50.3081 76.7466 50.8403C76.3364 51.3726 76.1313 52.1343 76.1313 53.1255ZM90.6992 55.1323L92.2227 49.0752H93.5776L91.2705 57H90.1719L88.2456 50.9941L86.3706 57H85.272L82.9722 49.0752H84.3198L85.8799 55.0078L87.7256 49.0752H88.8169L90.6992 55.1323ZM98.2505 57.1465C97.1763 57.1465 96.3022 56.7949 95.6284 56.0918C94.9546 55.3838 94.6177 54.439 94.6177 53.2573V53.0083C94.6177 52.2222 94.7666 51.5215 95.0645 50.9062C95.3672 50.2861 95.7871 49.8027 96.3242 49.4561C96.8662 49.1045 97.4521 48.9287 98.082 48.9287C99.1123 48.9287 99.9131 49.2681 100.484 49.9468C101.056 50.6255 101.341 51.5972 101.341 52.8618V53.4258H95.9727C95.9922 54.207 96.2192 54.8394 96.6538 55.3228C97.0933 55.8013 97.6499 56.0405 98.3237 56.0405C98.8022 56.0405 99.2075 55.9429 99.5396 55.7476C99.8716 55.5522 100.162 55.2935 100.411 54.9712L101.239 55.6157C100.575 56.6362 99.5786 57.1465 98.2505 57.1465ZM98.082 50.042C97.5352 50.042 97.0762 50.2422 96.7051 50.6426C96.334 51.0381 96.1045 51.5947 96.0166 52.3125H99.9863V52.21C99.9473 51.5215 99.7617 50.9893 99.4297 50.6133C99.0977 50.2324 98.6484 50.042 98.082 50.042ZM106.747 50.291C106.542 50.2568 106.319 50.2397 106.08 50.2397C105.191 50.2397 104.588 50.6182 104.271 51.375V57H102.916V49.0752H104.234L104.256 49.9907C104.701 49.2827 105.331 48.9287 106.146 48.9287C106.41 48.9287 106.61 48.9629 106.747 49.0312V50.291ZM109.471 57H108.116V49.0752H109.471V57ZM108.006 46.9731C108.006 46.7534 108.072 46.5679 108.204 46.4165C108.341 46.2651 108.541 46.1895 108.805 46.1895C109.068 46.1895 109.269 46.2651 109.405 46.4165C109.542 46.5679 109.61 46.7534 109.61 46.9731C109.61 47.1929 109.542 47.376 109.405 47.5225C109.269 47.6689 109.068 47.7422 108.805 47.7422C108.541 47.7422 108.341 47.6689 108.204 47.5225C108.072 47.376 108.006 47.1929 108.006 46.9731ZM112.928 49.0752L112.972 50.0713C113.578 49.3096 114.369 48.9287 115.345 48.9287C117.02 48.9287 117.865 49.8735 117.879 51.7632V57H116.524V51.7559C116.52 51.1846 116.388 50.7622 116.129 50.4888C115.875 50.2153 115.477 50.0786 114.935 50.0786C114.496 50.0786 114.11 50.1958 113.778 50.4302C113.446 50.6646 113.187 50.9722 113.001 51.353V57H111.646V49.0752H112.928ZM119.601 52.9717C119.601 51.7363 119.886 50.7549 120.458 50.0273C121.029 49.2949 121.786 48.9287 122.728 48.9287C123.695 48.9287 124.449 49.2705 124.991 49.9541L125.057 49.0752H126.295V56.8096C126.295 57.835 125.99 58.6431 125.379 59.2339C124.774 59.8247 123.958 60.1201 122.933 60.1201C122.362 60.1201 121.803 59.998 121.256 59.7539C120.709 59.5098 120.292 59.1753 120.003 58.7505L120.707 57.9375C121.288 58.6553 121.998 59.0142 122.838 59.0142C123.497 59.0142 124.01 58.8286 124.376 58.4575C124.747 58.0864 124.933 57.564 124.933 56.8901V56.209C124.391 56.834 123.651 57.1465 122.713 57.1465C121.786 57.1465 121.034 56.7729 120.458 56.0259C119.886 55.2788 119.601 54.2607 119.601 52.9717ZM120.963 53.1255C120.963 54.019 121.146 54.7222 121.512 55.2349C121.878 55.7427 122.391 55.9966 123.05 55.9966C123.905 55.9966 124.532 55.6084 124.933 54.832V51.2139C124.518 50.457 123.895 50.0786 123.065 50.0786C122.406 50.0786 121.891 50.335 121.52 50.8477C121.148 51.3604 120.963 52.1196 120.963 53.1255Z" fill="#041011"/>
<path d="M230 35C351.503 35 450 27.165 450 17.5C450 7.83502 351.503 0 230 0C108.497 0 10 7.83502 10 17.5C10 27.165 108.497 35 230 35Z" fill="#FFDDD7"/>
<path d="M283.222 13.125C279.964 13.125 276.728 13.2341 274.234 13.4555L200.248 20.0204L174.725 17.7557C169.737 17.3131 161.738 17.3131 156.75 17.7557C151.75 18.1983 151.75 18.9125 156.75 19.3551L191.26 22.4173C196.248 22.8609 204.247 22.8609 209.235 22.4173L292.259 15.0548C297.247 14.6122 297.247 13.8981 292.259 13.4555C289.759 13.2341 286.479 13.125 283.222 13.125Z" fill="#002E8C"/>
<path d="M48.9834 21H47.7119V12.5713L45.1621 13.5078V12.3594L48.7852 10.999H48.9834V21ZM52.7773 20.3369C52.7773 20.1182 52.8411 19.9359 52.9688 19.79C53.1009 19.6442 53.2969 19.5713 53.5566 19.5713C53.8164 19.5713 54.0124 19.6442 54.1445 19.79C54.2812 19.9359 54.3496 20.1182 54.3496 20.3369C54.3496 20.5465 54.2812 20.722 54.1445 20.8633C54.0124 21.0046 53.8164 21.0752 53.5566 21.0752C53.2969 21.0752 53.1009 21.0046 52.9688 20.8633C52.8411 20.722 52.7773 20.5465 52.7773 20.3369ZM52.7842 14.3008C52.7842 14.082 52.848 13.8997 52.9756 13.7539C53.1077 13.6081 53.3037 13.5352 53.5635 13.5352C53.8232 13.5352 54.0192 13.6081 54.1514 13.7539C54.2881 13.8997 54.3564 14.082 54.3564 14.3008C54.3564 14.5104 54.2881 14.6859 54.1514 14.8271C54.0192 14.9684 53.8232 15.0391 53.5635 15.0391C53.3037 15.0391 53.1077 14.9684 52.9756 14.8271C52.848 14.6859 52.7842 14.5104 52.7842 14.3008ZM60.2354 21H58.9639V12.5713L56.4141 13.5078V12.3594L60.0371 10.999H60.2354V21ZM70.5098 20.1045C70.9609 20.1045 71.3551 19.9678 71.6924 19.6943C72.0296 19.4209 72.2165 19.0791 72.2529 18.6689H73.4492C73.4264 19.0928 73.2806 19.4961 73.0117 19.8789C72.7428 20.2617 72.3828 20.5671 71.9316 20.7949C71.485 21.0228 71.0111 21.1367 70.5098 21.1367C69.5026 21.1367 68.7005 20.8018 68.1035 20.1318C67.5111 19.4574 67.2148 18.5368 67.2148 17.3701V17.1582C67.2148 16.4382 67.347 15.7979 67.6113 15.2373C67.8757 14.6768 68.2539 14.2415 68.7461 13.9316C69.2428 13.6217 69.8285 13.4668 70.5029 13.4668C71.3324 13.4668 72.0205 13.7152 72.5674 14.2119C73.1188 14.7087 73.4128 15.3535 73.4492 16.1465H72.2529C72.2165 15.668 72.0342 15.276 71.7061 14.9707C71.3825 14.6608 70.9814 14.5059 70.5029 14.5059C69.8604 14.5059 69.3613 14.7383 69.0059 15.2031C68.6549 15.6634 68.4795 16.3311 68.4795 17.2061V17.4453C68.4795 18.2975 68.6549 18.9538 69.0059 19.4141C69.3568 19.8743 69.8581 20.1045 70.5098 20.1045ZM74.5361 17.2334C74.5361 16.5088 74.6774 15.8571 74.96 15.2783C75.2471 14.6995 75.6436 14.2529 76.1494 13.9385C76.6598 13.624 77.2409 13.4668 77.8926 13.4668C78.8997 13.4668 79.7132 13.8154 80.333 14.5127C80.9574 15.21 81.2695 16.1374 81.2695 17.2949V17.3838C81.2695 18.1038 81.1305 18.751 80.8525 19.3252C80.5791 19.8949 80.1849 20.3392 79.6699 20.6582C79.1595 20.9772 78.5716 21.1367 77.9062 21.1367C76.9036 21.1367 76.0902 20.7881 75.4658 20.0908C74.846 19.3936 74.5361 18.4707 74.5361 17.3223V17.2334ZM75.8076 17.3838C75.8076 18.2041 75.9967 18.8626 76.375 19.3594C76.7578 19.8561 77.2682 20.1045 77.9062 20.1045C78.5488 20.1045 79.0592 19.8538 79.4375 19.3525C79.8158 18.8467 80.0049 18.1403 80.0049 17.2334C80.0049 16.4222 79.8112 15.766 79.4238 15.2646C79.041 14.7588 78.5306 14.5059 77.8926 14.5059C77.2682 14.5059 76.7646 14.7542 76.3818 15.251C75.999 15.7477 75.8076 16.4587 75.8076 17.3838ZM87.4219 21C87.349 20.8542 87.2897 20.5944 87.2441 20.2207C86.6562 20.8314 85.9544 21.1367 85.1387 21.1367C84.4095 21.1367 83.8102 20.9316 83.3408 20.5215C82.876 20.1068 82.6436 19.5827 82.6436 18.9492C82.6436 18.179 82.9352 17.582 83.5186 17.1582C84.1064 16.7298 84.9313 16.5156 85.9932 16.5156H87.2236V15.9346C87.2236 15.4925 87.0915 15.1416 86.8271 14.8818C86.5628 14.6175 86.1732 14.4854 85.6582 14.4854C85.207 14.4854 84.8288 14.5993 84.5234 14.8271C84.2181 15.055 84.0654 15.3307 84.0654 15.6543H82.7939C82.7939 15.2852 82.9238 14.9297 83.1836 14.5879C83.4479 14.2415 83.8034 13.9681 84.25 13.7676C84.7012 13.5671 85.1956 13.4668 85.7334 13.4668C86.5856 13.4668 87.2533 13.681 87.7363 14.1094C88.2194 14.5332 88.4701 15.1188 88.4883 15.8662V19.2705C88.4883 19.9495 88.5749 20.4896 88.748 20.8906V21H87.4219ZM85.3232 20.0361C85.7197 20.0361 86.0957 19.9336 86.4512 19.7285C86.8066 19.5234 87.0641 19.2568 87.2236 18.9287V17.4111H86.2324C84.6829 17.4111 83.9082 17.8646 83.9082 18.7715C83.9082 19.168 84.0404 19.4779 84.3047 19.7012C84.569 19.9245 84.9085 20.0361 85.3232 20.0361ZM93.4375 20.1045C93.8887 20.1045 94.2829 19.9678 94.6201 19.6943C94.9574 19.4209 95.1442 19.0791 95.1807 18.6689H96.377C96.3542 19.0928 96.2083 19.4961 95.9395 19.8789C95.6706 20.2617 95.3105 20.5671 94.8594 20.7949C94.4128 21.0228 93.9388 21.1367 93.4375 21.1367C92.4303 21.1367 91.6283 20.8018 91.0312 20.1318C90.4388 19.4574 90.1426 18.5368 90.1426 17.3701V17.1582C90.1426 16.4382 90.2747 15.7979 90.5391 15.2373C90.8034 14.6768 91.1816 14.2415 91.6738 13.9316C92.1706 13.6217 92.7562 13.4668 93.4307 13.4668C94.2601 13.4668 94.9482 13.7152 95.4951 14.2119C96.0465 14.7087 96.3405 15.3535 96.377 16.1465H95.1807C95.1442 15.668 94.9619 15.276 94.6338 14.9707C94.3102 14.6608 93.9092 14.5059 93.4307 14.5059C92.7881 14.5059 92.2891 14.7383 91.9336 15.2031C91.5827 15.6634 91.4072 16.3311 91.4072 17.2061V17.4453C91.4072 18.2975 91.5827 18.9538 91.9336 19.4141C92.2845 19.8743 92.7858 20.1045 93.4375 20.1045ZM99.0635 14.499C99.624 13.8109 100.353 13.4668 101.251 13.4668C102.814 13.4668 103.603 14.3486 103.616 16.1123V21H102.352V16.1055C102.347 15.5723 102.224 15.1781 101.982 14.9229C101.745 14.6676 101.374 14.54 100.868 14.54C100.458 14.54 100.098 14.6494 99.7881 14.8682C99.4782 15.0869 99.2367 15.374 99.0635 15.7295V21H97.7988V10.5H99.0635V14.499ZM106.884 21H105.619V13.6035H106.884V21ZM105.517 11.6416C105.517 11.4365 105.578 11.2633 105.701 11.1221C105.829 10.9808 106.016 10.9102 106.262 10.9102C106.508 10.9102 106.695 10.9808 106.822 11.1221C106.95 11.2633 107.014 11.4365 107.014 11.6416C107.014 11.8467 106.95 12.0176 106.822 12.1543C106.695 12.291 106.508 12.3594 106.262 12.3594C106.016 12.3594 105.829 12.291 105.701 12.1543C105.578 12.0176 105.517 11.8467 105.517 11.6416ZM110.11 13.6035L110.151 14.5332C110.716 13.8223 111.455 13.4668 112.366 13.4668C113.929 13.4668 114.718 14.3486 114.731 16.1123V21H113.467V16.1055C113.462 15.5723 113.339 15.1781 113.098 14.9229C112.861 14.6676 112.489 14.54 111.983 14.54C111.573 14.54 111.213 14.6494 110.903 14.8682C110.593 15.0869 110.352 15.374 110.179 15.7295V21H108.914V13.6035H110.11ZM116.338 17.2402C116.338 16.0872 116.604 15.1712 117.138 14.4922C117.671 13.8086 118.377 13.4668 119.257 13.4668C120.159 13.4668 120.863 13.7858 121.369 14.4238L121.431 13.6035H122.586V20.8223C122.586 21.7793 122.301 22.5335 121.731 23.085C121.166 23.6364 120.405 23.9121 119.448 23.9121C118.915 23.9121 118.393 23.7982 117.883 23.5703C117.372 23.3424 116.983 23.0303 116.714 22.6338L117.37 21.875C117.912 22.5449 118.576 22.8799 119.359 22.8799C119.975 22.8799 120.453 22.7067 120.795 22.3604C121.141 22.014 121.314 21.5264 121.314 20.8975V20.2617C120.809 20.8451 120.118 21.1367 119.243 21.1367C118.377 21.1367 117.675 20.7881 117.138 20.0908C116.604 19.3936 116.338 18.4434 116.338 17.2402ZM117.609 17.3838C117.609 18.2178 117.78 18.874 118.122 19.3525C118.464 19.8265 118.942 20.0635 119.558 20.0635C120.355 20.0635 120.941 19.7012 121.314 18.9766V15.5996C120.927 14.8932 120.346 14.54 119.571 14.54C118.956 14.54 118.475 14.7793 118.129 15.2578C117.783 15.7363 117.609 16.445 117.609 17.3838Z" fill="#041011"/>
</svg>
