<svg width="101" height="27" viewBox="0 0 101 27" fill="none" xmlns="http://www.w3.org/2000/svg">
<path d="M96.6464 22.3536C96.8417 22.5488 97.1583 22.5488 97.3536 22.3536L100.536 19.1716C100.731 18.9763 100.731 18.6597 100.536 18.4645C100.34 18.2692 100.024 18.2692 99.8284 18.4645L97 21.2929L94.1716 18.4645C93.9763 18.2692 93.6597 18.2692 93.4645 18.4645C93.2692 18.6597 93.2692 18.9763 93.4645 19.1716L96.6464 22.3536ZM96.5 6L96.5 22L97.5 22L97.5 6L96.5 6Z" fill="black" fill-opacity="0.23"/>
<path d="M9.875 15.7188L11.4062 7.625H13.7422L11.2188 19H8.85938L7.00781 11.3906L5.15625 19H2.79688L0.273438 7.625H2.60938L4.14844 15.7031L6.02344 7.625H8.00781L9.875 15.7188ZM17.0703 11.4688C17.6693 10.75 18.4219 10.3906 19.3281 10.3906C21.1615 10.3906 22.0911 11.4557 22.1172 13.5859V19H19.8594V13.6484C19.8594 13.1641 19.7552 12.8073 19.5469 12.5781C19.3385 12.3438 18.9922 12.2266 18.5078 12.2266C17.8464 12.2266 17.3672 12.4818 17.0703 12.9922V19H14.8125V7H17.0703V11.4688ZM26.9766 15.8047L28.5391 10.5469H30.9609L27.5625 20.3125L27.375 20.7578C26.8698 21.862 26.0365 22.4141 24.875 22.4141C24.5469 22.4141 24.2135 22.3646 23.875 22.2656V20.5547L24.2188 20.5625C24.6458 20.5625 24.9635 20.4974 25.1719 20.3672C25.3854 20.237 25.5521 20.0208 25.6719 19.7188L25.9375 19.0234L22.9766 10.5469H25.4062L26.9766 15.8047ZM41.8828 16.0156C41.8828 15.5729 41.7266 15.2344 41.4141 15C41.1016 14.7604 40.5391 14.5104 39.7266 14.25C38.9141 13.9844 38.2708 13.724 37.7969 13.4688C36.5052 12.7708 35.8594 11.8307 35.8594 10.6484C35.8594 10.0339 36.0312 9.48698 36.375 9.00781C36.724 8.52344 37.2214 8.14583 37.8672 7.875C38.5182 7.60417 39.2474 7.46875 40.0547 7.46875C40.8672 7.46875 41.5911 7.61719 42.2266 7.91406C42.862 8.20573 43.3542 8.61979 43.7031 9.15625C44.0573 9.69271 44.2344 10.3021 44.2344 10.9844H41.8906C41.8906 10.4635 41.7266 10.0599 41.3984 9.77344C41.0703 9.48177 40.6094 9.33594 40.0156 9.33594C39.4427 9.33594 38.9974 9.45833 38.6797 9.70312C38.362 9.94271 38.2031 10.2604 38.2031 10.6562C38.2031 11.026 38.388 11.3359 38.7578 11.5859C39.1328 11.8359 39.6823 12.0703 40.4062 12.2891C41.7396 12.6901 42.7109 13.1875 43.3203 13.7812C43.9297 14.375 44.2344 15.1146 44.2344 16C44.2344 16.9844 43.862 17.7578 43.1172 18.3203C42.3724 18.8776 41.3698 19.1562 40.1094 19.1562C39.2344 19.1562 38.4375 18.9974 37.7188 18.6797C37 18.3568 36.4505 17.9167 36.0703 17.3594C35.6953 16.8021 35.5078 16.1562 35.5078 15.4219H37.8594C37.8594 16.6771 38.6094 17.3047 40.1094 17.3047C40.6667 17.3047 41.1016 17.1927 41.4141 16.9688C41.7266 16.7396 41.8828 16.4219 41.8828 16.0156ZM50.5781 19C50.474 18.7969 50.3984 18.5443 50.3516 18.2422C49.8047 18.8516 49.0938 19.1562 48.2188 19.1562C47.3906 19.1562 46.7031 18.9167 46.1562 18.4375C45.6146 17.9583 45.3438 17.3542 45.3438 16.625C45.3438 15.7292 45.6745 15.0417 46.3359 14.5625C47.0026 14.0833 47.9635 13.8411 49.2188 13.8359H50.2578V13.3516C50.2578 12.9609 50.1562 12.6484 49.9531 12.4141C49.7552 12.1797 49.4401 12.0625 49.0078 12.0625C48.6276 12.0625 48.3281 12.1536 48.1094 12.3359C47.8958 12.5182 47.7891 12.7682 47.7891 13.0859H45.5312C45.5312 12.5964 45.6823 12.1432 45.9844 11.7266C46.2865 11.3099 46.7135 10.9844 47.2656 10.75C47.8177 10.5104 48.4375 10.3906 49.125 10.3906C50.1667 10.3906 50.9922 10.6536 51.6016 11.1797C52.2161 11.7005 52.5234 12.4349 52.5234 13.3828V17.0469C52.5286 17.849 52.6406 18.4557 52.8594 18.8672V19H50.5781ZM48.7109 17.4297C49.0443 17.4297 49.3516 17.3568 49.6328 17.2109C49.9141 17.0599 50.1224 16.8594 50.2578 16.6094V15.1562H49.4141C48.2839 15.1562 47.6823 15.5469 47.6094 16.3281L47.6016 16.4609C47.6016 16.7422 47.7005 16.974 47.8984 17.1562C48.0964 17.3385 48.3672 17.4297 48.7109 17.4297ZM56.375 10.5469L56.4453 11.4922C57.0443 10.7578 57.8542 10.3906 58.875 10.3906C59.9635 10.3906 60.7109 10.8203 61.1172 11.6797C61.7109 10.8203 62.5573 10.3906 63.6562 10.3906C64.5729 10.3906 65.2552 10.6589 65.7031 11.1953C66.151 11.7266 66.375 12.5286 66.375 13.6016V19H64.1094V13.6094C64.1094 13.1302 64.0156 12.7812 63.8281 12.5625C63.6406 12.3385 63.3099 12.2266 62.8359 12.2266C62.1589 12.2266 61.6901 12.5495 61.4297 13.1953L61.4375 19H59.1797V13.6172C59.1797 13.1276 59.0833 12.7734 58.8906 12.5547C58.6979 12.3359 58.3698 12.2266 57.9062 12.2266C57.2656 12.2266 56.8021 12.4922 56.5156 13.0234V19H54.2578V10.5469H56.375ZM73.0156 19C72.9115 18.7969 72.8359 18.5443 72.7891 18.2422C72.2422 18.8516 71.5312 19.1562 70.6562 19.1562C69.8281 19.1562 69.1406 18.9167 68.5938 18.4375C68.0521 17.9583 67.7812 17.3542 67.7812 16.625C67.7812 15.7292 68.112 15.0417 68.7734 14.5625C69.4401 14.0833 70.401 13.8411 71.6562 13.8359H72.6953V13.3516C72.6953 12.9609 72.5938 12.6484 72.3906 12.4141C72.1927 12.1797 71.8776 12.0625 71.4453 12.0625C71.0651 12.0625 70.7656 12.1536 70.5469 12.3359C70.3333 12.5182 70.2266 12.7682 70.2266 13.0859H67.9688C67.9688 12.5964 68.1198 12.1432 68.4219 11.7266C68.724 11.3099 69.151 10.9844 69.7031 10.75C70.2552 10.5104 70.875 10.3906 71.5625 10.3906C72.6042 10.3906 73.4297 10.6536 74.0391 11.1797C74.6536 11.7005 74.9609 12.4349 74.9609 13.3828V17.0469C74.9661 17.849 75.0781 18.4557 75.2969 18.8672V19H73.0156ZM71.1484 17.4297C71.4818 17.4297 71.7891 17.3568 72.0703 17.2109C72.3516 17.0599 72.5599 16.8594 72.6953 16.6094V15.1562H71.8516C70.7214 15.1562 70.1198 15.5469 70.0469 16.3281L70.0391 16.4609C70.0391 16.7422 70.138 16.974 70.3359 17.1562C70.5339 17.3385 70.8047 17.4297 71.1484 17.4297ZM78.5391 15.5078C78.5391 14.7786 78.6276 14.1979 78.8047 13.7656C78.9818 13.3333 79.3047 12.9089 79.7734 12.4922C80.2474 12.0703 80.5625 11.7292 80.7188 11.4688C80.875 11.2031 80.9531 10.9245 80.9531 10.6328C80.9531 9.7526 80.5469 9.3125 79.7344 9.3125C79.349 9.3125 79.0391 9.43229 78.8047 9.67188C78.5755 9.90625 78.4557 10.2318 78.4453 10.6484H76.1797C76.1901 9.65365 76.5104 8.875 77.1406 8.3125C77.776 7.75 78.6406 7.46875 79.7344 7.46875C80.8385 7.46875 81.6953 7.73698 82.3047 8.27344C82.9141 8.80469 83.2188 9.55729 83.2188 10.5312C83.2188 10.974 83.1198 11.3932 82.9219 11.7891C82.724 12.1797 82.3776 12.6146 81.8828 13.0938L81.25 13.6953C80.8542 14.0755 80.6276 14.5208 80.5703 15.0312L80.5391 15.5078H78.5391ZM78.3125 17.9062C78.3125 17.5573 78.4297 17.2708 78.6641 17.0469C78.9036 16.8177 79.2083 16.7031 79.5781 16.7031C79.9479 16.7031 80.25 16.8177 80.4844 17.0469C80.724 17.2708 80.8438 17.5573 80.8438 17.9062C80.8438 18.25 80.7266 18.5339 80.4922 18.7578C80.263 18.9818 79.9583 19.0938 79.5781 19.0938C79.1979 19.0938 78.8906 18.9818 78.6562 18.7578C78.4271 18.5339 78.3125 18.25 78.3125 17.9062Z" fill="#041011"/>
</svg>
